# xmcd
#
# Track frame offsets:
#	150
#	18212
#	37517
#	55319
#	72905
#	90843
#	108051
#	125567
#	145690
#	164396
#	181210
#	199486
#	215855
#	236749
#	256409
#	276484
#	298624
#
# Disc length: 4213 seconds
#
# Revision: 0
# Processed by: cddbd v1.5.2PL0 Copyright (c) Steve Scherf et al.
# Submitted via: EZCDAudioConverter 1.1.0.1
#
DISCID=f6107311
DTITLE=劉小慧 - 音樂大全101 [CD5]
DYEAR=2011
DGENRE=Pop
TTITLE0=劉小慧 - 青春街口
TTITLE1=劉小慧 - 風中的夢
TTITLE2=劉小慧 - 隔世感覺
TTITLE3=劉小慧、黎瑞恩 - 說愛談情
TTITLE4=劉小慧、鄭嘉穎 - Till The End Of Time
TTITLE5=劉小慧 - 一天48小時
TTITLE6=劉小慧 - 分手的藉口
TTITLE7=劉小慧 - 永遠的心痛
TTITLE8=劉小慧 - 留住這一刻
TTITLE9=劉小慧 - 一起走到明天
TTITLE10=劉小慧 - 今宵不想告別
TTITLE11=劉小慧 - 急色鬼，愛出位
TTITLE12=劉小慧 - 夢幻星座情人
TTITLE13=劉小慧 - 我懷念一片雲彩
TTITLE14=劉小慧 - 就算世事風氣轉
TTITLE15=劉小慧 - 熱力節拍 Wou Bom Ba
TTITLE16=劉小慧、早蜢、關淑怡、湯寶如 - 離別太陽西沉時
EXTD=
EXTT0=
EXTT1=
EXTT2=
EXTT3=
EXTT4=
EXTT5=
EXTT6=
EXTT7=
EXTT8=
EXTT9=
EXTT10=
EXTT11=
EXTT12=
EXTT13=
EXTT14=
EXTT15=
EXTT16=
PLAYORDER=
